<svg xmlns="http://www.w3.org/2000/svg" xmlns:xlink="http://www.w3.org/1999/xlink" viewBox="0 0 313.24 85.04"><defs><style>.cls-1{fill:#1f2a66;}.cls-2{fill:url(#名称未設定グラデーション_10);}.cls-3{fill:url(#名称未設定グラデーション_10-2);}.cls-4{fill:url(#名称未設定グラデーション_10-3);}</style><linearGradient id="名称未設定グラデーション_10" x1="87.87" y1="25.32" x2="102.53" y2="25.32" gradientUnits="userSpaceOnUse"><stop offset="0" stop-color="#009ce1"/><stop offset="1" stop-color="#006cb6"/></linearGradient><linearGradient id="名称未設定グラデーション_10-2" x1="160.37" y1="59.46" x2="160.37" y2="28.73" xlink:href="#名称未設定グラデーション_10"/><linearGradient id="名称未設定グラデーション_10-3" x1="0" y1="42.52" x2="76.54" y2="42.52" xlink:href="#名称未設定グラデーション_10"/></defs><g id="レイヤー_2" data-name="レイヤー 2"><g id="レイヤー_1-2" data-name="レイヤー 1"><path class="cls-1" d="M121.21,21.35H91.84a4,4,0,1,0,0,7.93h10.69V63a4,4,0,1,0,8,0V29.28h10.63a4,4,0,1,0,0-7.93Z"/><path class="cls-2" d="M91.84,29.28a4,4,0,1,1,0-7.93h10.69v7.93Z"/><path class="cls-1" d="M228.25,66.79a4,4,0,0,1-2.18-.65,3.74,3.74,0,0,1-1.52-1.83l-2.82-7H203.41l-2.81,7a3.74,3.74,0,0,1-1.52,1.83,4,4,0,0,1-2.18.65,3.84,3.84,0,0,1-2.84-1.17,3.78,3.78,0,0,1-1.16-2.78,4.43,4.43,0,0,1,.35-1.62L208.8,24a4.37,4.37,0,0,1,1.47-1.93,3.81,3.81,0,0,1,2.28-.7,3.87,3.87,0,0,1,2.31.68A4.61,4.61,0,0,1,216.35,24c11.78,28.21,11.81,28.3,11.83,28.39l3.71,8.82a4.84,4.84,0,0,1,.36,1.66,3.82,3.82,0,0,1-1.16,2.79A3.89,3.89,0,0,1,228.25,66.79Zm-9.37-16.53-6.31-15.37-6.3,15.37Z"/><path class="cls-1" d="M190.05,32.35a20.76,20.76,0,0,0-8-8.09,23.31,23.31,0,0,0-11.67-2.91h-10a4,4,0,0,0-2.84,1.12,3.86,3.86,0,0,0-1.17,2.89V62.78a4,4,0,0,0,4,4h10A23.21,23.21,0,0,0,182,63.87a20.64,20.64,0,0,0,8-8.12A24,24,0,0,0,192.9,44,23.86,23.86,0,0,0,190.05,32.35ZM170.37,59.43h-6V28.7h6A15,15,0,0,1,178,30.65a13.63,13.63,0,0,1,5.21,5.41,16.7,16.7,0,0,1,1.88,8,16.85,16.85,0,0,1-1.88,8A13.58,13.58,0,0,1,178,57.49,15,15,0,0,1,170.37,59.43Z"/><path class="cls-1" d="M253.82,39.76c-3.73-.38-6.31-1.15-7.68-2.28a4.91,4.91,0,0,1-1.91-3.94,4.11,4.11,0,0,1,2.07-3.77,11.64,11.64,0,0,1,6.19-1.45,10.14,10.14,0,0,1,5.1,1.14,9.43,9.43,0,0,1,3.3,3.34,4,4,0,0,0,1.54,1.58,4.08,4.08,0,0,0,4.2,0,3.48,3.48,0,0,0,1.59-2.92,4.89,4.89,0,0,0-.84-2.6,17.81,17.81,0,0,0-5.91-5.9,16.71,16.71,0,0,0-8.59-2.09,23,23,0,0,0-8.29,1.43,13.92,13.92,0,0,0-6,4.28,10.74,10.74,0,0,0-2.26,6.81,11.68,11.68,0,0,0,4.33,9.24c2.78,2.37,6.62,3.81,11.4,4.27,3,.31,5.32,1.13,6.75,2.44a5.94,5.94,0,0,1,2.07,4.56,4.86,4.86,0,0,1-2.37,4.28,11.37,11.37,0,0,1-6.39,1.72,13,13,0,0,1-6-1.37,7.05,7.05,0,0,1-3.4-3.1,4.34,4.34,0,0,0-3.91-2.61,3.13,3.13,0,0,0-.83.09,4.19,4.19,0,0,0-2.2,1.17,3.22,3.22,0,0,0-.92,2.25,4,4,0,0,0,.36,1.55,14.34,14.34,0,0,0,6.55,6.91,21.11,21.11,0,0,0,10.31,2.57,21.84,21.84,0,0,0,8.07-1.49,14.07,14.07,0,0,0,6.2-4.63,12.08,12.08,0,0,0,2.39-7.51,12.54,12.54,0,0,0-4-9.65C262.15,41.67,258.47,40.23,253.82,39.76Z"/><path class="cls-1" d="M312.11,22.48h0a3.88,3.88,0,0,0-2.82-1.13,4,4,0,0,0-2.84,1.12,3.86,3.86,0,0,0-1.17,2.89V40.09H281.9V25.36a4,4,0,0,0-6.84-2.89,3.87,3.87,0,0,0-1.18,2.89V62.78a4,4,0,0,0,6.9,2.83,4,4,0,0,0,1.12-2.83V47.44h23.38V62.78a4,4,0,0,0,4,4,3.81,3.81,0,0,0,2.82-1.14,3.91,3.91,0,0,0,1.13-2.87V25.36A3.94,3.94,0,0,0,312.11,22.48Z"/><rect class="cls-1" x="122.34" y="40.28" width="28.35" height="7.57" rx="3.79"/><rect class="cls-3" x="156.36" y="28.73" width="8.02" height="30.73"/><path class="cls-4" d="M70.64,68.45c-.24-.08-.47-.14-.7-.2a14.13,14.13,0,0,1-8.41-6.07l-20.2-30.3a6.81,6.81,0,0,1,1.88-9.44l5-3.3A13.6,13.6,0,0,1,58,16.87a8.89,8.89,0,0,0,2.26.11,8.51,8.51,0,1,0-2-16.89,8.55,8.55,0,0,0-6.81,5.83c-.07.23-.13.46-.19.68a14,14,0,0,1-6,8.39L19.86,31.88A13.56,13.56,0,0,1,10,34.15a8.46,8.46,0,0,0-2.26-.1,8.5,8.5,0,1,0,8.84,11.08,5.91,5.91,0,0,0,.19-.69A14.24,14.24,0,0,1,22.88,36l4.77-3.18a6.8,6.8,0,0,1,9.43,1.89L57.39,65.18A13.54,13.54,0,0,1,59.66,75a8.51,8.51,0,1,0,11-6.57Z"/></g></g></svg>